<svg width="38" height="38" viewBox="0 0 38 38" fill="none" xmlns="http://www.w3.org/2000/svg">
<g opacity="0.3">
<path d="M19 6C26.1797 6 32 11.8203 32 19C32 26.1797 26.1797 32 19 32C11.8203 32 6 26.1797 6 19C6 11.8203 11.8203 6 19 6Z" stroke="#079455" stroke-width="2"/>
</g>
<g opacity="0.1">
<path d="M19 1C28.9411 1 37 9.05887 37 19C37 28.9411 28.9411 37 19 37C9.05887 37 1 28.9411 1 19C1 9.05887 9.05887 1 19 1Z" stroke="#079455" stroke-width="2"/>
</g>
<g clip-path="url(#clip0_2942_41616)">
<path d="M15.2493 19.0003L17.7493 21.5003L22.7493 16.5003M27.3327 19.0003C27.3327 23.6027 23.6017 27.3337 18.9993 27.3337C14.397 27.3337 10.666 23.6027 10.666 19.0003C10.666 14.398 14.397 10.667 18.9993 10.667C23.6017 10.667 27.3327 14.398 27.3327 19.0003Z" stroke="#079455" stroke-width="1.66667" stroke-linecap="round" stroke-linejoin="round"/>
</g>
<defs>
<clipPath id="clip0_2942_41616">
<rect width="20" height="20" fill="white" transform="translate(9 9)"/>
</clipPath>
</defs>
</svg>
